<svg width="512" height="438" viewBox="0 0 512 438" fill="none" xmlns="http://www.w3.org/2000/svg">
<path d="M330.667 85.667C354.134 85.667 373.334 66.467 373.334 43C373.334 19.533 354.134 0.333008 330.667 0.333008C307.2 0.333008 288 19.533 288 43C288 66.467 307.2 85.667 330.667 85.667Z" fill="#41C536"/>
<path d="M106.667 224.333C48 224.333 0 272.333 0 331C0 389.667 48 437.667 106.667 437.667C165.334 437.667 213.334 389.667 213.334 331C213.334 272.333 165.333 224.333 106.667 224.333ZM106.667 405.667C65.067 405.667 32 372.6 32 331C32 289.4 65.067 256.333 106.667 256.333C148.267 256.333 181.334 289.4 181.334 331C181.334 372.6 148.267 405.667 106.667 405.667Z" fill="#41C536"/>
<path d="M404.267 201.933V159.266C372.267 159.266 345.6 147.533 326.4 128.333L284.8 87.8C278.4 80.333 267.733 75 256 75C244.267 75 233.6 79.267 226.133 87.8L167.466 146.467C159.999 153.934 154.666 164.6 154.666 176.334C154.666 188.068 159.999 198.734 167.466 207.267L234.666 267V373.667H277.333V240.333L230.4 193.4L280.533 142.2L296.533 158.2C323.2 185.933 360.533 201.933 404.267 201.933Z" fill="#41C536"/>
<path d="M405.333 224.333C346.666 224.333 298.666 272.333 298.666 331C298.666 389.667 346.666 437.667 405.333 437.667C464 437.667 512 389.667 512 331C512 272.333 464 224.333 405.333 224.333ZM405.333 405.667C363.733 405.667 330.666 372.6 330.666 331C330.666 289.4 363.733 256.333 405.333 256.333C446.933 256.333 480 289.4 480 331C480 372.6 446.933 405.667 405.333 405.667Z" fill="#41C536"/>
</svg>
