<svg width="512" height="512" viewBox="0 0 512 512" fill="none" xmlns="http://www.w3.org/2000/svg">
<path d="M507.31 84.69L464 41.37C458 35.37 449.86 32 441.37 32H288V16C288 7.16 280.84 0 272 0H240C231.16 0 224 7.16 224 16V32H56C42.75 32 32 42.75 32 56V136C32 149.25 42.75 160 56 160H441.37C449.86 160 457.99 156.63 464 150.63L507.31 107.32C513.56 101.06 513.56 90.94 507.31 84.69ZM224 496C224 504.84 231.16 512 240 512H272C280.84 512 288 504.84 288 496V384H224V496ZM456 224H288V192H224V224H70.63C62.14 224 54.01 227.37 48 233.37L4.69 276.69C-1.56 282.94 -1.56 293.07 4.69 299.32L48 342.63C54 348.63 62.14 352 70.63 352H456C469.25 352 480 341.25 480 328V248C480 234.75 469.25 224 456 224Z" fill="#41C536"/>
</svg>
